<svg baseProfile="full" xmlns="http://www.w3.org/2000/svg" width="486" height="485">
<defs>
<style><![CDATA[polyline{stroke-linecap:round;stroke-linejoin:round}path{stroke-linecap:round;stroke-linejoin:round}]]></style>
</defs>

<path fill="#222" stroke="#777" stroke-width="15" stroke-linecap="round" stroke-linejoin="round" d="M242 380l-52-11-49 51-23-15 28-65-30-45-71 1-5-26 66-27 10-52-51-51 15-21 66 27 44-29V45l25-5 27 66 53 11 50-51 22 14-28 66 30 45 71-1 6 26-67 27-10 52 51 51-15 22-66-28-44 29v71l-26 5z"/>
<circle cx="242.23" cy="241.77" r="78.33" fill="#fff" stroke="#59F" stroke-width="15" stroke-linecap="round" stroke-linejoin="round"/>
</svg>