<svg xmlns="http://www.w3.org/2000/svg" viewBox="0 0 13.229 13.229">
<defs>
<marker orient="auto" refY="0" refX="0" id="b" overflow="visible">
<path d="M.508 0l-3.46 2v-4l3.46 2z" fill-rule="evenodd" fill="#fff" stroke="#777" stroke-width=".4pt"/>
</marker>
<marker orient="auto" refY="0" refX="0" id="a" overflow="visible">
<path d="M.508 0l-3.46 2v-4l3.46 2z" fill-rule="evenodd" fill="#777" stroke="#777" stroke-width=".4pt"/>
</marker>
</defs>
<circle cx="6.615" cy="6.615" r="6.218" fill="#ffe" stroke="#e66" stroke-width=".794" stroke-linecap="round" stroke-linejoin="round" paint-order="stroke fill markers"/>
<path d="M6.568 3.766v2.838M9.455 6.604H6.568" fill="none" stroke="#e66" stroke-width=".661" stroke-linecap="round" stroke-linejoin="round"/>
<rect width="1.367" height="1.367" x="8.832" y="8.911" rx=".238" ry=".238" fill="#222" stroke="#777" stroke-width=".265" stroke-linecap="square" paint-order="stroke fill markers"/>
<rect width="1.367" height="1.367" x="2.86" y="2.92" rx=".294" ry=".294" fill="#fff" stroke="#777" stroke-width=".265" stroke-linecap="square" paint-order="stroke fill markers"/>
<circle cx="3.449" cy="9.756" r=".28" fill="#777" stroke="#777" stroke-width=".265" stroke-linecap="square" paint-order="stroke fill markers"/>
<path d="M5.036 2.548a4.362 4.362 0 0 1 4.653.972 4.362 4.362 0 0 1 1.002 4.647" fill="none" stroke="#777" stroke-width=".265" stroke-linecap="round" stroke-linejoin="round" marker-end="url(#a)" paint-order="stroke fill markers"/>
<circle r=".28" cy="3.545" cx="9.676" fill="#777" stroke="#777" stroke-width=".265" stroke-linecap="square" paint-order="stroke fill markers"/>
<path d="M-8.167-10.847A4.362 4.362 0 0 1-3.54-9.842a4.362 4.362 0 0 1 .985 4.63" transform="scale(-1)" fill="none" stroke="#777" stroke-width=".265" stroke-linecap="round" stroke-linejoin="round" marker-end="url(#b)" paint-order="stroke fill markers"/></svg>