<svg xmlns="http://www.w3.org/2000/svg" viewBox="0 0 13.229 13.229">
<circle cx="6.615" cy="6.615" r="6.218" fill="#ffe" stroke="#6ea" stroke-width=".794" stroke-linecap="round" stroke-linejoin="round" paint-order="stroke fill markers"/>
<path d="M3.393 2.918s-.962 4.543.014 6.46c.596 1.173 3.182 2.323 3.182 2.323s2.63-1.127 3.237-2.309c.983-1.918-.014-6.474-.014-6.474l-1.768.396-1.441-.983-1.456 1.01z" fill="none" stroke="#777" stroke-width=".265"/>
<path d="M4.165 7.613c-.444 1.121-.018 1.597.552 1.982 1.148.776 3.276.64 4.14-.44.51-.64-.359-1.267-.297-2.433.01-.245.337-.74.16-1.415-.123-.471-.997-1.071-.997-1.071s.313.598-.047 1.313c-.207.412-.256 1.36-.256 1.36s-.219-1.014-.395-1.5c-.368-1.015.188-1.853.188-1.853-1.53 1.245-1.14 1.677-1.048 2.908-.566-.706-.553-1.768-.765-2.534-.917 1.767-.061 2.327-.039 3.442-.246-.517-.818-1.333-1.289-1.626.265.72.467.962.093 1.867z" fill="#e00" stroke="#777" stroke-width=".265" stroke-linecap="round" stroke-linejoin="round"/>
</svg>