<svg xmlns="http://www.w3.org/2000/svg" viewBox="0 0 13.229 13.229">
<circle cx="6.615" cy="6.615" r="6.218" fill="#ffe" stroke="#dd2" stroke-width=".794" stroke-linecap="round" stroke-linejoin="round" paint-order="stroke fill markers"/>
<g transform="translate(0 .229)" stroke="#777" stroke-linecap="square" paint-order="stroke fill markers">
<rect ry=".436" rx=".436" y="3.016" x="5.94" height="1.349" width="1.349" style="line-height:1.25" fill="none" stroke-width=".265"/>
<rect style="line-height:1.25" width="1.983" height="1.983" x="5.623" y="2.699" rx=".992" ry=".991" fill="#d22" stroke-width=".529"/>
<rect ry=".436" rx=".436" y="8.724" x="5.94" height="1.349" width="1.349" style="line-height:1.25" fill="#28d" stroke-width=".529"/>
<rect style="line-height:1.25" width="1.349" height="1.349" x="5.94" y="7.106" rx=".436" ry=".436" fill="#5d2" stroke-width=".529"/>
<rect ry=".436" rx=".436" y="5.489" x="5.94" height="1.349" width="1.349" style="line-height:1.25" fill="#f81" stroke-width=".529"/>
</g>
<g fill="none" stroke="#777" stroke-width=".265" stroke-linecap="round">
<path d="M8.38 4.677l1.821 1.012M7.977 5.283c.371.41.818.864 1.273 1.359M8.624 3.984c.536.135 1.373.368 2.023.537"/>
<g><path d="M4.849 4.677L3.028 5.689M5.252 5.283c-.37.41-.818.864-1.273 1.359M4.605 3.984c-.536.135-1.372.368-2.023.537"/></g>
</g>
</svg>