<svg xmlns="http://www.w3.org/2000/svg" viewBox="0 0 13.229 13.229">
<circle cx="6.615" cy="6.615" r="6.218" fill="#ffe" stroke="#dd2" stroke-width=".794" stroke-linecap="round" stroke-linejoin="round" paint-order="stroke fill markers"/>
<path d="M2.796 3.29l3.172.021" fill="none" stroke="#777" stroke-width=".661" stroke-linecap="round"/>
<path d="M2.796 3.094l3.172.021" fill="none" stroke="#dd2" stroke-width=".265" stroke-linecap="round"/>
<path d="M4.284 4.61l3.578.022" fill="none" stroke="#777" stroke-width=".661" stroke-linecap="round"/>
<path d="M4.284 4.414l3.578.022" fill="none" stroke="#dd2" stroke-width=".265" stroke-linecap="round"/>
<path d="M5.193 5.931l4.502.021" fill="none" stroke="#777" stroke-width=".661" stroke-linecap="round"/>
<path d="M5.193 5.735l4.502.021" fill="none" stroke="#dd2" stroke-width=".265" stroke-linecap="round"/>
<path d="M5.22 7.252l5.747.02" fill="none" stroke="#777" stroke-width=".661" stroke-linecap="round"/>
<path d="M5.22 7.055l5.747.021" fill="none" stroke="#dd2" stroke-width=".265" stroke-linecap="round"/>
<path d="M4.267 8.583l6.833.02" fill="none" stroke="#777" stroke-width=".661" stroke-linecap="round"/>
<path d="M4.267 8.386l6.833.022" fill="none" stroke="#dd2" stroke-width=".265" stroke-linecap="round"/>
<path d="M2.804 9.892l7.673.022" fill="none" stroke="#777" stroke-width=".661" stroke-linecap="round"/>
<path d="M2.804 9.696l7.673.021" fill="none" stroke="#dd2" stroke-width=".265" stroke-linecap="round"/>
<path d="M9.513 7.94c3.272-2.951-.053-4.756-3.199-6.538M7.332 4.297V2.06M9.334 5.606V3.38M10.166 9.575V7.333" fill="none" stroke="#777" stroke-width=".265" stroke-linecap="round"/>
</svg>