<svg xmlns="http://www.w3.org/2000/svg" width="255" height="64" viewBox="0 0 254 64"><path d="M2059.992 259.013h168.013l31.007 30.975v137.02m-199.02-228.99v228.99m-45.998-167.995H1844.99l-29.982 30.975v106.999l29.982 30.022h169.003m-338.005 0h-75.98L1569 396.987v-107l31.007-30.974h137.996l29.982 30.975v60.996H1569m-111.018-152.967V427.01m-106.988-228.992h214.01m-334.999 0V427.01M810.01 198.017h-91.997l-30.017 30.975v60.996l30.017 30.022H871l31.008 30.974v46.003L871 427.009H687.996" transform="scale(.11048 .11073)" fill="none" stroke-width="30" stroke-linecap="round" stroke-linejoin="round" stroke="#bbb"/><path d="M56.898 43.848c.442-.887.922-2.215 1.438-3.985a31.02 31.02 0 0 0 1.105-5.316 32.647 32.647 0 0 0 0-5.317 31.01 31.01 0 0 0-1.105-5.312 22.844 22.844 0 0 0-2.102-4.984 22.984 22.984 0 0 0-2.98-4.54 22.847 22.847 0 0 0-3.758-3.765 22.966 22.966 0 0 0-4.531-2.988 23.003 23.003 0 0 0-4.969-2.106c-1.695-.515-3.094-.848-4.2-.996l-1.546-.11zm0 0" fill="#8d2"/><path d="M29.832 4.43c-2.137.222-4.05.59-5.746 1.105a22.952 22.952 0 0 0-4.973 2.106 23.081 23.081 0 0 0-4.531 2.988 22.823 22.823 0 0 0-3.754 3.766 23.002 23.002 0 0 0-2.984 4.539 23.025 23.025 0 0 0-2.098 4.984 30.643 30.643 0 0 0-1.105 5.312 31.791 31.791 0 0 0 0 5.317c.218 1.844.59 3.617 1.105 5.316.516 1.77.883 2.88 1.106 3.32l.328.665zm0 0" fill="#bbb"/><path d="M9.613 47.945c1.914 2.364 3.57 4.098 4.969 5.203a22.907 22.907 0 0 0 4.531 2.989 22.76 22.76 0 0 0 4.973 2.105c1.695.516 3.46.887 5.3 1.106 1.77.148 3.54.148 5.305 0a30.63 30.63 0 0 0 5.305-1.106 22.81 22.81 0 0 0 4.969-2.105 22.794 22.794 0 0 0 4.531-2.989c1.399-1.105 2.578-2.25 3.535-3.433l1.438-1.77zm0 0" fill="#59f"/><path d="M1180.012 312.99c0 63.536-51.514 115.007-115.013 115.007-63.5 0-115.014-51.471-115.014-115.008 0-63.5 51.514-114.972 115.014-114.972 63.5 0 115.013 51.471 115.013 114.972zm0 0" transform="scale(.11048 .11073)" fill="none" stroke-width="30" stroke-linecap="round" stroke-linejoin="round" stroke="#bbb"/></svg>