<?xml version="1.0" encoding="UTF-8"?>
<svg width="84.667mm" height="16.533mm" version="1.1" viewBox="0 0 84.667 16.533" xml:space="preserve" xmlns="http://www.w3.org/2000/svg">
 <g transform="translate(-1281.3 5.0807)">
  <g transform="matrix(.18999 0 0 .18999 1188.5 -30.787)" fill="#c00" stroke-width="5.2635">
    <g fill="#c00"><path d="m621.6 222.33v-65.01h50.005v65.01h-10.001v-55.006h-30.003v55.006z" color="#000000" style="-inkscape-stroke:none;paint-order:markers stroke fill"/><path d="m679.11 222.33v-65.01h40.014v10.004h-30.013v14.984h30.013v10.001h-30.013v20.02h30.013v10.001z" color="#000000" style="-inkscape-stroke:none;paint-order:markers stroke fill"/><path d="m731.62 212.33c2.3192 0 5.0004-1.7698 5.0004-4.9532v-50.056h45.031l-0.15576 65.01h-9.8711v-55.006h-25.004v39.988c-3.2e-4 9.1878-7.9269 15.018-15 15.018h-5.0004v-10.001z" color="#000000" style="-inkscape-stroke:none;paint-order:markers stroke fill"/><path d="m836.67 157.32h10.004v24.988h30.003v-24.988h10.004v65.01h-10.157v-30.021h-29.695v30.021h-10.312z" color="#000000" style="-inkscape-stroke:none;paint-order:markers stroke fill"/><path d="m894.34 157.32h39.981v10.004h-30.004v55.006h-9.9767z" color="#000000" style="-inkscape-stroke:none;paint-order:markers stroke fill"/><path d="m789 222.33v-65.01h40.014v10.004h-30.013v14.984h30.013v10.001h-30.013v20.02h30.013v10.001z" color="#000000" style="-inkscape-stroke:none;paint-order:markers stroke fill"/><path d="m488.67 135.31v87.02h7.5078v-79.512h18.75c5.4946 0 10.853 0.5583 16.027 1.6172 5.1746 1.0589 10.165 2.6197 14.92 4.6309 4.7549 2.0112 9.2735 4.4721 13.504 7.3301 4.2304 2.858 8.1733 6.1127 11.771 9.7109 3.5982 3.5982 6.853 7.5391 9.7109 11.77 2.858 4.2304 5.3189 8.751 7.3301 13.506s3.572 9.7453 4.6309 14.92c1.0589 5.1746 1.6152 10.533 1.6152 16.027h7.5078c0-6.0018-0.60814-11.867-1.7676-17.533-1.1594-5.666-2.87-11.133-5.0723-16.34s-4.8961-10.154-8.0234-14.783c-3.1273-4.629-6.6873-8.9392-10.623-12.875s-8.2479-7.4957-12.877-10.623c-4.629-3.1273-9.5764-5.8231-14.783-8.0254-5.2068-2.2023-10.672-3.9109-16.338-5.0703-5.666-1.1594-11.531-1.7695-17.533-1.7695z" color="#000000" style="-inkscape-stroke:none;paint-order:markers stroke fill"/><path d="m499.92 154.96v67.367h7.5078v-59.859h7.498c4.138 0 8.171 0.41969 12.066 1.2168s7.6531 1.9724 11.232 3.4863c3.5793 1.5139 6.9811 3.3659 10.166 5.5176 3.1849 2.1517 6.1522 4.6034 8.8613 7.3125s5.1589 5.6764 7.3106 8.8613c2.1517 3.1849 4.0056 6.5867 5.5195 10.166 1.5139 3.5793 2.6892 7.3351 3.4863 11.23 0.7971 3.8954 1.2148 7.9304 1.2148 12.068h7.5098c0-4.6452-0.47148-9.1855-1.3691-13.572-0.89765-4.3868-2.2227-8.6192-3.9277-12.65-1.7051-4.0312-3.7899-7.8618-6.2109-11.445-2.421-3.5835-5.1779-6.9201-8.2246-9.9668s-6.3832-5.8036-9.9668-8.2246c-3.5836-2.421-7.4141-4.5059-11.445-6.2109-4.0312-1.7051-8.2636-3.0301-12.65-3.9277-4.3868-0.89765-8.9271-1.3691-13.572-1.3691z" color="#000000" style="-inkscape-stroke:none;paint-order:markers stroke fill"/><path d="m511.18 174.61v47.721h7.5078v-39.834c1.4556 0.13684 2.9486 0.14999 4.3535 0.4375 2.6165 0.53542 5.1388 1.3249 7.543 2.3418s4.6903 2.2614 6.8301 3.707c2.1398 1.4456 4.1347 3.0917 5.9551 4.9121 1.8204 1.8204 3.4665 3.8153 4.9121 5.9551 1.4456 2.1398 2.6902 4.424 3.707 6.8281 1.0169 2.4042 1.8064 4.9284 2.3418 7.5449 0.53541 2.6165 0.81641 5.3257 0.81641 8.1074h7.5078c0-3.2889-0.33278-6.5054-0.96875-9.6133-0.63597-3.1079-1.5752-6.1068-2.7832-8.9629-1.208-2.856-2.6855-5.569-4.4004-8.1074-1.7149-2.5384-3.6663-4.9026-5.8242-7.0606s-4.5221-4.1093-7.0606-5.8242c-2.5384-1.7149-5.2514-3.1943-8.1074-4.4023-2.8561-1.208-5.855-2.1453-8.9629-2.7812s-6.3244-0.96874-9.6133-0.96875z" color="#000000" style="-inkscape-stroke:none;paint-order:markers stroke fill"/>
    </g>
  </g>
 </g>
</svg>
